<svg version="1" xmlns="http://www.w3.org/2000/svg" width="77.082" height="77.082" viewBox="0 0 77.082 77.082"><g fill-rule="evenodd" clip-rule="evenodd"><path d="M65.79 11.291C59.667 5.321 51.919.974 40.798 0h-4.516c-11.135.908-18.7 5.387-24.99 11.141C5.457 17.451.917 25.055 0 36.282v4.517c.974 11.12 5.321 18.867 11.292 24.99 6.116 5.978 13.873 10.316 24.991 11.293h4.516c11.124-.971 18.87-5.319 24.991-11.293 5.973-6.121 10.321-13.866 11.292-24.99v-4.517c-.976-11.118-5.315-18.874-11.292-24.991zm1.656 38.993c-1.485 3.725-3.811 6.733-6.172 9.334-5.199 5.725-11.983 9.263-21.077 9.935-9.562.708-17.493-3.293-22.733-8.128-5.575-5.146-9.241-11.627-9.937-21.077-.737-10.03 3.323-17.483 8.13-22.733 2.399-2.621 5.082-4.89 8.732-6.774 3.486-1.801 7.793-2.986 12.495-3.312 9.774-.677 17.85 3.659 22.885 8.281 5.102 4.683 9.352 12.003 9.936 21.076.325 5.047-.784 9.7-2.259 13.398z"/><path d="M27.701 33.723c3.54 1.512 7.781-1.902 6.022-6.021-.421-.988-2.194-2.507-4.215-2.409-2.349.115-3.606 1.428-4.065 2.71-1.101 3.076.869 5.127 2.258 5.72zM49.38 33.723c.948-.404 1.967-1.611 2.259-2.408 1.223-3.351-1.656-6.174-4.367-6.022-2.949.166-4.755 2.613-4.215 5.419.499 2.59 3.682 4.139 6.323 3.011zM58.866 38.541c-2.617.13-2.54 2.607-3.162 4.817-2.244 7.976-11.567 15.704-22.583 12.193-6.03-1.921-10.226-6.848-11.743-12.345-.649-2.353-.728-5.088-3.914-4.516-3.365.604-2.323 3.973-1.506 6.624 1.273 4.13 3.493 7.734 5.872 10.087 3.419 3.383 8.58 6.344 14.603 6.776 8.623.617 14.634-2.591 18.969-6.926 1.932-1.932 3.045-3.726 4.367-6.474.849-1.765 2.854-6.303 2.106-8.431-.382-1.091-1.897-1.861-3.009-1.805z"/></g></svg>