<svg xmlns="http://www.w3.org/2000/svg" style="display:none"><symbol id="android-logo" viewbox="0 0 42.084 47.041"><path fill="#A4C639" d="M34.144 14.009H7.945c-.009.11-.018.22-.018.333v18.754c0 1.926 1.457 3.491 3.316 3.628v7.433a2.884 2.884 0 1 0 5.77 0v-7.419h8.058v7.419a2.885 2.885 0 1 0 5.771 0v-7.433c1.858-.137 3.315-1.702 3.315-3.628V14.342c0-.113-.004-.223-.013-.333zM2.886 15.679a2.886 2.886 0 0 1 2.886 2.885v12.378a2.885 2.885 0 1 1-5.772 0V18.564a2.885 2.885 0 0 1 2.886-2.885zM39.198 15.679a2.885 2.885 0 0 1 2.886 2.885v12.378a2.885 2.885 0 0 1-2.886 2.886 2.884 2.884 0 0 1-2.885-2.886V18.564a2.884 2.884 0 0 1 2.885-2.885zM8.03 11.967h26.025c-.039-2.783-1.234-5.322-3.186-7.275L33.315.457a.304.304 0 1 0-.527-.304L30.416 4.26c-2.052-1.853-4.821-3.101-7.924-3.4h-2.9c-3.102.299-5.872 1.547-7.924 3.4L9.296.152a.304.304 0 0 0-.526.304l2.445 4.235c-1.95 1.954-3.147 4.493-3.185 7.276zm17.293-5.163c-.002-.805.664-1.46 1.489-1.462.825-.002 1.494.648 1.497 1.454v.008c.002.805-.664 1.46-1.489 1.462-.824.002-1.494-.649-1.497-1.454v-.008zm-11.143 0c-.001-.805.665-1.46 1.489-1.462.824-.002 1.494.648 1.497 1.454v.008c.002.805-.664 1.46-1.488 1.462-.825.002-1.495-.649-1.498-1.454v-.008z"/></symbol><symbol id="apple-logo" viewbox="0 0 46.21 56.753"><path fill="#FFF" d="M38.593 30.15c.081 8.59 7.535 11.447 7.617 11.483-.062.202-1.19 4.073-3.927 8.072-2.365 3.457-4.82 6.901-8.688 6.973-3.799.07-5.021-2.253-9.365-2.253s-5.702 2.182-9.298 2.323c-3.733.142-6.576-3.739-8.961-7.184-4.875-7.046-8.598-19.91-3.597-28.593 2.484-4.313 6.925-7.043 11.743-7.114 3.666-.069 7.126 2.466 9.366 2.466 2.241 0 6.444-3.049 10.865-2.601 1.85.077 7.044.747 10.38 5.629-.269.168-6.197 3.62-6.135 10.799m-7.14-21.088c1.982-2.4 3.316-5.739 2.952-9.062-2.857.115-6.312 1.904-8.36 4.302-1.837 2.123-3.445 5.521-3.011 8.778 3.184.246 6.436-1.619 8.419-4.018"/></symbol><symbol id="facebook" viewbox="0 0 8.7 18.9"><style>.st0{fill:#d22856}</style><path class="st0" d="M6.3 3.4h2.4V0H5.8C2.7.2 1.5 2.4 1.9 6.1H0v3.5h2v9.3h3.8V9.6h2.9V6.1H5.8c0-1 0-2.4.5-2.7z"/></symbol><symbol id="glukhanko" viewbox="0 0 26 29.9"><style>.st0{fill:#d22856}</style><path class="st0" d="M0 0h26v29.9l-13-4.8-13 4.8V0zm20.2 17.9h-.8c-.3 0-.5-.1-.6-.1-.2-.1-.4-.3-.5-.5-.1-.2-.2-.5-.2-.9s0-1.2.1-2.5c0-1.2.1-2.3.1-3.2 0-.9-.1-1.6-.4-2.1-.3-.5-.7-.9-1.2-1.2-.7-.2-1.3-.4-1.9-.5-.6-.1-1.4-.1-2.1-.1-.6 0-1.2.1-1.8.2-.7.1-1.2.3-1.7.6-.7.1-1.1.4-1.5.8-.3.3-.5.7-.5 1.2s.2.9.5 1.3c.3.3.9.5 1.5.5.5 0 .8 0 1.1-.1.2-.1.4-.2.6-.4.1-.1.2-.3.3-.5.1-.2.1-.4.1-.5 0-.3-.1-.6-.2-1 0-.3-.1-.6-.1-.7.1-.1.3-.2.6-.3.2-.1.5-.2.9-.2s.7.1 1 .3c.2.2.4.4.5.7.1.2.2.5.2.8v2c-.5.2-1.2.5-2.2.8-1 .3-1.9.6-2.6.8-.4.1-.7.3-1 .5-.3.2-.6.4-.8.6-.3.3-.5.6-.6 1-.1.4-.2.8-.2 1.3 0 .9.3 1.6 1 2.2.7.6 1.5.8 2.4.8.6 0 1.1 0 1.5-.1.4-.1.7-.2 1.1-.4.3-.1.6-.3.8-.5.3-.2.5-.4.8-.7h.1c.2.5.5 1 .9 1.3.5.3 1.2.4 2.2.4.5 0 1-.1 1.5-.2s.9-.3 1.3-.4l-.2-1zm-6.1-1.3c-.2.3-.5.5-.8.7-.3.2-.6.3-1.1.3-.4 0-.8-.1-1.1-.4-.3-.3-.4-.7-.4-1.4 0-.5.1-.9.3-1.2.2-.3.4-.6.7-.9.3-.2.6-.4 1.1-.6.4-.2.9-.4 1.3-.5v4z"/></symbol><symbol id="htmlacademy" viewbox="0 0 26.1 33.8"><style>.st0{fill:#d22856}</style><path class="st0" d="M13 0L0 1.5V26l13 7.8 13-7.9V1.6L13 0zm11 24.7l-11 6.6V24l-6.4-2.9 6.4-2.8 6.4 2.8v-1.2L13.1 17l-6.4 2.8v-1.2l5.8-2.6-1.4-.6-4.5 2v-1.2l3.1-1.4-1.4-.6-1.7.7v-1.2l.4-.1-3.7-1.7L13 7.6V2.1l11 1.3v21.3z"/><path class="st0" d="M19.4 17.4l-4.4-2-1.4.6 5.8 2.6zM19.4 14.9l-1.7-.7-1.4.6 3.1 1.4z"/></symbol><symbol id="logo-1" viewbox="0 0 74.318 23.041"><path d="M0 1.46C0 .747.585.163 1.266.163h7.24c5.13 0 8.507 2.726 8.507 7.205v.064c0 4.901-4.091 7.431-8.928 7.431h-5.52v6.881c0 .714-.584 1.297-1.299 1.297-.681 0-1.266-.583-1.266-1.297V1.46zm8.182 11.067c3.767 0 6.234-2.012 6.234-4.998v-.065c0-3.245-2.435-4.932-6.104-4.932H2.565v9.995h5.617zM22.448 1.298c0-.714.584-1.298 1.266-1.298.714 0 1.299.584 1.299 1.298v20.446c0 .714-.584 1.297-1.299 1.297-.682 0-1.267-.583-1.267-1.297V1.298zM31.138 1.33c0-.68.584-1.265 1.266-1.265h.357c.584 0 .942.292 1.299.747L47.859 18.4V1.266c0-.682.553-1.266 1.266-1.266.682 0 1.234.584 1.234 1.266v20.51c0 .682-.487 1.2-1.17 1.2h-.129c-.552 0-.941-.324-1.332-.778L33.638 4.187v17.589c0 .682-.552 1.265-1.267 1.265-.682 0-1.233-.583-1.233-1.265V1.33zM56.039 1.298c0-.714.584-1.298 1.265-1.298.715 0 1.3.584 1.3 1.298v12.429L71.558.455c.291-.26.584-.455 1.007-.455.682 0 1.233.617 1.233 1.266 0 .357-.163.649-.422.909l-8.053 7.983 8.637 10.645c.228.292.357.553.357.941 0 .681-.584 1.297-1.299 1.297-.486 0-.812-.259-1.039-.583L63.505 11.91l-4.901 4.9v4.934c0 .714-.585 1.297-1.3 1.297-.682 0-1.266-.583-1.266-1.297V1.298z"/></symbol><symbol id="menu-burger" viewbox="0 0 49.945 24.007"><path fill="#231F20" d="M1.137 0C.51 0 0 .428 0 1.01v1.981c0 .558.494 1.01 1.138 1.01h47.671c.628 0 1.138-.428 1.138-1.01V1.01c0-.558-.494-1.01-1.138-1.01H1.137zm0 10.003c-.627 0-1.137.428-1.137 1.01v1.98c0 .557.494 1.01 1.138 1.01h47.671c.628 0 1.138-.428 1.138-1.01v-1.98c0-.558-.494-1.01-1.138-1.01H1.137zm0 10.002C.51 20.005 0 20.434 0 21.016v1.981c0 .557.494 1.01 1.138 1.01h47.671c.628 0 1.138-.428 1.138-1.01v-1.981c0-.558-.494-1.011-1.138-1.011H1.137z"/><path fill="#231F20" d="M1.137 0C.51 0 0 .428 0 1.01v1.981c0 .558.494 1.01 1.138 1.01h47.671c.628 0 1.138-.428 1.138-1.01V1.01c0-.558-.494-1.01-1.138-1.01H1.137zm0 10.003c-.627 0-1.137.428-1.137 1.01v1.98c0 .557.494 1.01 1.138 1.01h47.671c.628 0 1.138-.428 1.138-1.01v-1.98c0-.558-.494-1.01-1.138-1.01H1.137zm0 10.002C.51 20.005 0 20.434 0 21.016v1.981c0 .557.494 1.01 1.138 1.01h47.671c.628 0 1.138-.428 1.138-1.01v-1.981c0-.558-.494-1.011-1.138-1.011H1.137z"/></symbol><symbol id="menu-cross" viewbox="0 0 23.866 23.866"><path d="M15.087 11.933l8.56-8.559a.75.75 0 0 0 0-1.061L21.554.22a.75.75 0 0 0-1.061 0l-8.56 8.56L3.373.22a.771.771 0 0 0-1.061 0L.22 2.313a.75.75 0 0 0 0 1.061l8.56 8.559-8.56 8.559a.75.75 0 0 0 0 1.061l2.093 2.094a.749.749 0 0 0 1.06 0l8.561-8.56 8.56 8.56a.749.749 0 0 0 1.06 0l2.093-2.094a.75.75 0 0 0 0-1.061l-8.56-8.559z"/></symbol><symbol id="microsoft-logo" viewbox="0 0 43.922 41.992"><path fill="#F05423" d="M20.874 19.953H0V0h20.874v19.953z"/><path fill="#84C441" d="M43.922 19.953H23.049V0h20.873v19.953z"/><path fill="#2DABE2" d="M20.873 41.992H0V22.04h20.873v19.952z"/><path fill="#F9BC15" d="M43.922 41.992H23.049V22.04h20.873v19.952z"/></symbol><symbol id="no" viewbox="0 0 26.8 26.8"><style>.st0{fill:#f25b26}</style><path class="st0" d="M15.5 13.4L26.3 2.6c.6-.6.6-1.5 0-2.1s-1.5-.6-2.1 0L13.4 11.3 2.6.4C2-.1 1-.1.4.4-.1 1-.1 2 .4 2.6l10.8 10.8L.4 24.2c-.6.6-.6 1.5 0 2.1.3.3.7.4 1.1.4s.8-.1 1.1-.4l10.8-10.8 10.8 10.8c.3.3.7.4 1.1.4s.8-.1 1.1-.4c.6-.6.6-1.5 0-2.1L15.5 13.4z"/></symbol><symbol id="quotes" viewbox="0 0 78.673 63.788"><g fill="#efefef"><path d="M72.354 39.632c-2.797-2.401-6.636-3.604-11.518-3.604h-5.67c.473-4.081 1.278-7.397 2.421-9.948 1.141-2.551 2.854-5.044 5.139-7.477 2.363-2.51 4.685-4.531 6.97-6.063 2.283-1.53 5.274-3.356 8.978-5.477L74.42 0c-2.441 1.495-5.474 3.42-9.096 5.779-3.623 2.359-7.048 5.228-10.276 8.607-3.151 3.302-5.83 7.056-8.033 11.261-2.206 4.204-3.308 8.861-3.308 13.97 0 7.232 1.456 13.07 4.371 17.511 2.913 4.44 7.755 6.661 14.529 6.661 4.33 0 7.737-1.436 10.218-4.311s3.721-5.967 3.721-9.273c0-4.646-1.399-8.171-4.192-10.573zM19.019 18.603c2.362-2.51 4.685-4.531 6.97-6.063 2.283-1.53 5.274-3.356 8.978-5.477L30.713 0c-2.441 1.495-5.475 3.42-9.095 5.779-3.624 2.359-7.05 5.228-10.278 8.607-3.149 3.302-5.828 7.056-8.032 11.261C1.103 29.851 0 34.508 0 39.616c0 7.232 1.457 13.07 4.371 17.511 2.912 4.44 7.756 6.661 14.529 6.661 4.33 0 7.737-1.436 10.218-4.311s3.722-5.967 3.722-9.273c0-4.646-1.399-8.17-4.194-10.572-2.796-2.401-6.635-3.604-11.517-3.604h-5.671c.473-4.081 1.3-7.416 2.481-10.007 1.181-2.589 2.873-5.063 5.08-7.418z"/></g></symbol><symbol id="smiley-1" viewbox="0 0 77.082 77.082"><g fill-rule="evenodd" clip-rule="evenodd"><path d="M65.79 11.291C59.667 5.321 51.919.974 40.798 0h-4.516c-11.135.908-18.7 5.387-24.99 11.141C5.457 17.451.917 25.055 0 36.282v4.517c.974 11.12 5.321 18.867 11.292 24.99 6.116 5.978 13.873 10.316 24.991 11.293h4.516c11.124-.971 18.87-5.319 24.991-11.293 5.973-6.121 10.321-13.866 11.292-24.99v-4.517c-.976-11.118-5.315-18.874-11.292-24.991zm1.656 38.993c-1.485 3.725-3.811 6.733-6.172 9.334-5.199 5.725-11.983 9.263-21.077 9.935-9.562.708-17.493-3.293-22.733-8.128-5.575-5.146-9.241-11.627-9.937-21.077-.737-10.03 3.323-17.483 8.13-22.733 2.399-2.621 5.082-4.89 8.732-6.774 3.486-1.801 7.793-2.986 12.495-3.312 9.774-.677 17.85 3.659 22.885 8.281 5.102 4.683 9.352 12.003 9.936 21.076.325 5.047-.784 9.7-2.259 13.398z"/><path d="M27.701 33.723c3.54 1.512 7.781-1.902 6.022-6.021-.421-.988-2.194-2.507-4.215-2.409-2.349.115-3.606 1.428-4.065 2.71-1.101 3.076.869 5.127 2.258 5.72zM49.38 33.723c.948-.404 1.967-1.611 2.259-2.408 1.223-3.351-1.656-6.174-4.367-6.022-2.949.166-4.755 2.613-4.215 5.419.499 2.59 3.682 4.139 6.323 3.011zM58.866 38.541c-2.617.13-2.54 2.607-3.162 4.817-2.244 7.976-11.567 15.704-22.583 12.193-6.03-1.921-10.226-6.848-11.743-12.345-.649-2.353-.728-5.088-3.914-4.516-3.365.604-2.323 3.973-1.506 6.624 1.273 4.13 3.493 7.734 5.872 10.087 3.419 3.383 8.58 6.344 14.603 6.776 8.623.617 14.634-2.591 18.969-6.926 1.932-1.932 3.045-3.726 4.367-6.474.849-1.765 2.854-6.303 2.106-8.431-.382-1.091-1.897-1.861-3.009-1.805z"/></g></symbol><symbol id="timer" viewbox="899.295 367.419 116.845 133.709"><path fill="#DDD" d="M901.352 428.26c-.133.484-2.057 9.89-2.057 15.134 0 24.958 16.058 46.17 38.513 54.223 6.224 2.222 12.91 3.51 19.908 3.51a58.13 58.13 0 0 0 8.57-.632c.297-.037.58-.124.88-.174 8.222-1.32 15.892-4.32 22.584-8.67a58.056 58.056 0 0 0 21.205-24.56c3.302-7.24 5.185-15.23 5.185-23.69 0-5.1-.677-10.05-1.94-14.76a57.174 57.174 0 0 0-11.085-21.57l3.36-3.32a5.976 5.976 0 0 0 0-8.52c-1.31-1.29-3.05-1.8-4.756-1.67-1.41.1-2.81.62-3.87 1.68l-3.36 3.32c-3.56-2.85-7.48-5.25-11.66-7.21a58.98 58.98 0 0 0-11.9-4.13c-.04 0-.08 0-.12-.01-1.8-.41-3.61-.77-5.48-1.01v-3.66h2.69c4.21 0 7.62-3.37 7.62-7.54 0-4.15-3.42-7.53-7.63-7.53h-21.1c-.68 0-1.32.12-1.95.27l-.01.02c-3.27.86-5.67 3.77-5.67 7.25 0 4.17 3.41 7.55 7.62 7.55h3.16v3.66c-19.64 2.53-36.16 14.72-44.64 31.56-1.7 3.36-3.1 6.88-4.1 10.56m86.89 45.3c-5.57 5.5-12.39 9.25-19.82 11.14-2.55.63-5.2.98-7.87 1.15-.38.03-.73.09-1.11.1-.58.03-1.14.12-1.72.12-1.59 0-3.16-.1-4.72-.265-9.75-1.05-18.78-5.28-25.81-12.23-8.16-8.06-12.65-18.776-12.65-30.167 0-.906.08-1.786.13-2.676.65-10.39 5.01-20.08 12.52-27.495.93-.92 1.91-1.78 2.9-2.61l.01-.006c7.74-6.384 17.4-9.88 27.61-9.88 1.87 0 3.7.128 5.51.36a43.475 43.475 0 0 1 15.97 5.33c.05.03.11.07.16.11 3.19 1.84 6.19 4.05 8.88 6.696.63.63 1.2 1.29 1.78 1.95.02.02.04.05.06.07 1.19 1.34 2.25 2.77 3.25 4.22.64.944 1.28 1.894 1.84 2.88 3.46 5.99 5.43 12.73 5.64 19.79.01.42.06.83.06 1.26 0 11.39-4.49 22.11-12.64 30.17z"/><path fill="#D22856" d="M957.784 400.795c23.766 0 43.1 19.123 43.1 42.63s-19.334 42.63-43.1 42.63-43.102-19.125-43.102-42.63c0-23.506 19.335-42.63 43.102-42.63m0-4.256c-26.18 0-47.402 20.99-47.402 46.88 0 25.89 21.222 46.88 47.402 46.88s47.4-20.99 47.4-46.89c0-25.9-21.222-46.89-47.4-46.89z"/><path d="M956.99 459.895h-23.696v-4.934l8.51-8.51c2.52-2.55 4.165-4.32 4.937-5.31.78-.98 1.33-1.9 1.67-2.74.34-.84.51-1.71.51-2.61 0-1.34-.37-2.35-1.12-3-.75-.65-1.75-.98-3-.98-1.31 0-2.59.3-3.82.9-1.23.6-2.52 1.45-3.87 2.55l-3.89-4.57c1.67-1.4 3.06-2.4 4.15-2.98 1.1-.58 2.3-1.03 3.6-1.34 1.3-.31 2.75-.47 4.36-.47 2.12 0 3.99.39 5.61 1.15 1.63.77 2.89 1.84 3.78 3.21s1.35 2.96 1.35 4.73c0 1.55-.27 3-.82 4.35-.55 1.35-1.4 2.74-2.55 4.17s-3.18 3.45-6.08 6.09l-4.35 4.06v.32H957v5.97zm27.868-6.955h-4.08v6.954h-7.003v-6.953h-14.468v-4.93l14.862-21.66h6.6v21.09h4.08v5.51zm-11.083-5.506v-5.69c0-.95.038-2.327.116-4.132.08-1.806.14-2.854.19-3.145h-.18a25.575 25.575 0 0 1-2.06 3.672l-6.21 9.29h8.16z" fill="#D22856"/></symbol><symbol id="twitter" viewbox="0 0 17.5 14.7"><style>.st0{fill:#d22856}</style><path class="st0" d="M11.3.2C13-.3 14.4.4 15 1.3c.7-.2 1.4-.5 2.1-.7 0 .8-.5 1.5-.9 1.7.7.2 1.3-.5 1.3-.5-.2 1-1 1.7-1.6 2-.2 6.6-3.3 11-10.4 10.8H5c-.4 0-4.3-.4-5-1.8 2.3.2 4-.4 4.8-1.1-1-.3-2.8-.5-3.1-2.9.4.1.6.2 1.3.1C1.8 8.1.4 7.4.5 5.2c.3.3 1.1.5 1.4.5-.7-.2-2-3.3-.9-4.8 1.9 1.8 3.8 3.5 7.4 3.7C8.5 2.3 9.5.8 11.3.2z" id="W6EeEF_1_"/></symbol><symbol id="yes" viewbox="0 0 30.4 21.7"><style>.st0{fill:#3dc644}</style><path class="st0" d="M29.9.4c-.6-.6-1.5-.6-2.1 0L10.2 18.1l-7.6-7.6C2 9.9 1 9.9.4 10.4s-.6 1.5 0 2.1l8.7 8.7c.3.3.7.4 1.1.4s.8-.1 1.1-.4L29.9 2.6c.6-.6.6-1.6 0-2.2z"/></symbol><symbol id="youtube" viewbox="0 0 14.6 14"><style>.st0{fill:#d22856}</style><path class="st0" d="M1.8 13.8c-1 .5-1.8 0-1.8-1.1V1.3C0 .2.8-.3 1.8.2l12.1 5.9c1 .5 1 1.3 0 1.7l-12.1 6z"/></symbol></svg>