<svg xmlns="http://www.w3.org/2000/svg" viewBox="0 0 70.7 82.47"><title>main-promo__item-logo-2</title><path d="M35.16 34.59a5.73 5.73 0 1 0 6.41 5 5.74 5.74 0 0 0-6.41-5z"/><path d="M59.05 65.79s1.53-14.42-6.33-19.56c-.56-.48-.5-12.63-.5-12.63s.28-2.72-1.37-4a71 71 0 0 0-9.1-7.46l5.61-6.94c1.27.72 9.28-2.61 11-7.45a2.63 2.63 0 0 0 .1-1.75C57.39 3 53.03.55 51.01.08a2.45 2.45 0 0 0-2.18.73c-4.61 5.4-4.39 12.19-4.15 12.44l-5.65 7c-.53-.35-3.17-2.31-5-.67-2.27 2.3.63 4.11 1.52 4.92L20.38 43.31c-.18-.17-2.69-2.58-4.45-.87a2.75 2.75 0 0 0-.18 3.9l1.15 1.3L10.97 55c-1.71-.47-6.81.76-10.71 7.44a2.14 2.14 0 0 0-.15 1.74c1 3.05 5.35 5.44 7.34 6.06a2.32 2.32 0 0 0 2.19-.69c5.63-6.25 4.48-12.37 4.07-12.71l5.37-6.65 5.06 5.78c.68 1.31 2.64 1.1 3.15 1l10.3-2.35c2.38 2.45.88 7-.13 9.34 6.74.45 13.34 4.04 21.59 1.83zM28.67 49.05c-1.11.05-3.74-1.86-5.81-3.58L38 26.74c2.75 2.59 6.19 5.78 6.52 7 1.17 4.05.04 14.52-15.85 15.31z"/><path d="M59.26 66.82C48.74 69.69 40.9 63 32.06 65.41c-8.46 2.31-9.71 11.52-9.71 11.52s1.35-4.8 10.63-7.34c8.66-2.37 15.45 4.63 27 1.46 8.65-2.37 10.72-11.8 10.72-11.8a22.67 22.67 0 0 1-11.44 7.57z"/><path d="M59.05 72.37C48.54 75.24 40.71 68.52 31.9 71c-8.46 2.31-9.71 11.52-9.71 11.52s1.35-4.8 10.63-7.34c8.66-2.37 15.45 4.63 27 1.46 8.65-2.37 10.72-11.8 10.72-11.8a22.67 22.67 0 0 1-11.49 7.53z"/></svg>