<svg data-name="Слой 1" xmlns="http://www.w3.org/2000/svg" viewBox="0 0 93.28 100"><title>main-about__item-logo-1</title><path d="M93.28 100a13.94 13.94 0 0 1-5.74-1.27 13.71 13.71 0 0 0-11.82 0A14 14 0 0 1 70 100a13.86 13.86 0 0 1-5.74-1.27 13.75 13.75 0 0 0-11.84 0 13.62 13.62 0 0 1-11.48 0 13.73 13.73 0 0 0-11.83 0 13.66 13.66 0 0 1-11.5 0 13.71 13.71 0 0 0-11.82 0A13.92 13.92 0 0 1 0 100v-8.72A13.88 13.88 0 0 0 5.75 90a13.95 13.95 0 0 1 11.82 0 13.75 13.75 0 0 0 11.5 0 14 14 0 0 1 11.83 0 13.71 13.71 0 0 0 11.48 0 14 14 0 0 1 11.84 0A13.8 13.8 0 0 0 70 91.28 14 14 0 0 0 75.72 90a13.94 13.94 0 0 1 11.82 0 13.87 13.87 0 0 0 5.74 1.26V100zM10 49.62a5.71 5.71 0 1 0-5.65-5.71A5.69 5.69 0 0 0 10 49.62zM34.85 75.51H18.69A5.91 5.91 0 0 1 13.31 72l-6-13.79a5.72 5.72 0 0 1-.18-1.43 6 6 0 0 1 5.92-6h13.13l9-4.13a1.92 1.92 0 0 1 .91-.19 2.84 2.84 0 0 1 2.81 2.84 2.89 2.89 0 0 1-1.2 2.34l-9.8 4.46a4 4 0 0 1-1.9.6h-5.9l4.95 11.1H36a3.52 3.52 0 0 1 2.5 1l10.72 10.26a3.8 3.8 0 0 1 .19 5.31 3.72 3.72 0 0 1-5.25.19zM85.22 56.84a1.37 1.37 0 0 0 1.19.5 1.67 1.67 0 0 0 1.65-1.69 2.58 2.58 0 0 0-.42-1.22C77.53 34.94 50.26 40.74 46.92 42a1.56 1.56 0 0 0-.92 1.49 1.67 1.67 0 0 0 1.65 1.67 1.76 1.76 0 0 0 .65-.1C75.09 39 83.8 54.38 85.22 56.84zm4.64 1.76L55.65 80.42 24.51 0c27.87 3.73 63.31 25.62 65.35 58.6z"/></svg>